<svg width="34" height="50" viewBox="0 0 34 50" fill="none" xmlns="http://www.w3.org/2000/svg">
<rect x="8" y="19" width="18" height="21" fill="#3C3C3C"/>
<path d="M0 0H8V14L0 10.5V0Z" fill="#3C3C3C"/>
<path d="M26 0H34V12L26 14V0Z" fill="#3C3C3C"/>
<rect x="13" width="8" height="14" fill="#3C3C3C"/>
<path d="M0.0941049 9H33.8896C33.8896 9 34.8835 14.1354 30.9076 17.559C26.9317 20.9826 8.04598 20.6402 3.57305 17.559C-0.899879 14.4778 0.0941049 9 0.0941049 9Z" fill="#3C3C3C"/>
<path d="M3 41.9999C7.5 35.9998 27 37.5 30 41C33 44.5 34 50 34 50H-9.53674e-07C-9.53674e-07 50 0.656886 45.1242 3 41.9999Z" fill="#3C3C3C"/>
</svg>
