<svg width="66" height="15" viewBox="0 0 66 15" fill="none" xmlns="http://www.w3.org/2000/svg">
<rect x="7" y="2" width="59" height="12" rx="2" fill="#214671"/>
<circle cx="7.5" cy="7.5" r="7.5" fill="#DB9102"/>
<path d="M13.3929 7.49997C13.3929 10.7545 10.7545 13.3928 7.5 13.3928C4.24547 13.3928 1.60715 10.7545 1.60715 7.49997C1.60715 4.24543 4.24547 1.60711 7.5 1.60711C10.7545 1.60711 13.3929 4.24543 13.3929 7.49997Z" fill="#E6C862"/>
<path d="M7.3744 11.8117V3.6948H7.89439V11.8117H7.3744ZM8.75363 6.374C8.72827 6.11824 8.61941 5.91954 8.42706 5.77792C8.2347 5.6363 7.97365 5.56548 7.6439 5.56548C7.41984 5.56548 7.23066 5.59719 7.07636 5.6606C6.92205 5.7219 6.80368 5.80751 6.72124 5.91743C6.64092 6.02734 6.60076 6.15206 6.60076 6.29157C6.59653 6.40782 6.62084 6.50928 6.67368 6.59595C6.72864 6.68261 6.80368 6.75765 6.8988 6.82107C6.99392 6.88236 7.10384 6.93627 7.22855 6.98277C7.35326 7.02716 7.48643 7.06521 7.62805 7.09691L8.21145 7.23642C8.4947 7.29983 8.75469 7.38439 8.99143 7.49007C9.22818 7.59576 9.43321 7.72576 9.60654 7.88006C9.77987 8.03437 9.9141 8.21615 10.0092 8.42542C10.1064 8.63468 10.1561 8.87459 10.1582 9.14516C10.1561 9.54255 10.0547 9.88709 9.85385 10.1788C9.65516 10.4684 9.36769 10.6935 8.99143 10.8541C8.6173 11.0127 8.16601 11.0919 7.63756 11.0919C7.11335 11.0919 6.65677 11.0116 6.26784 10.851C5.88102 10.6903 5.57875 10.4525 5.36103 10.1376C5.14543 9.82051 5.03234 9.4284 5.02177 8.96126H6.35028C6.36507 9.17898 6.42743 9.36076 6.53734 9.50661C6.64937 9.65035 6.7984 9.75921 6.98441 9.83319C7.17253 9.90506 7.38497 9.94099 7.62171 9.94099C7.85422 9.94099 8.05609 9.90717 8.22731 9.83953C8.40063 9.77189 8.53486 9.67783 8.62998 9.55734C8.7251 9.43686 8.77266 9.29841 8.77266 9.14199C8.77266 8.99614 8.72933 8.87354 8.64266 8.77419C8.55811 8.67484 8.4334 8.59029 8.26852 8.52054C8.10576 8.45078 7.90601 8.38737 7.66927 8.3303L6.96221 8.15274C6.41475 8.01957 5.98248 7.81137 5.66541 7.52812C5.34835 7.24488 5.19087 6.86334 5.19299 6.38351C5.19087 5.99035 5.2955 5.64686 5.50688 5.35305C5.72037 5.05924 6.01313 4.82989 6.38515 4.66502C6.75718 4.50014 7.17993 4.41771 7.65342 4.41771C8.13536 4.41771 8.556 4.50014 8.91534 4.66502C9.27679 4.82989 9.55793 5.05924 9.75873 5.35305C9.95954 5.64686 10.0631 5.98718 10.0695 6.374H8.75363Z" fill="#DB9102"/>
</svg>
