<svg width="59" height="76" viewBox="0 0 59 76" fill="none" xmlns="http://www.w3.org/2000/svg">
<rect y="13" width="59" height="63" rx="2" fill="#214671"/>
<rect x="4" y="17" width="51" height="55" rx="2" fill="#D9D9D9"/>
<path d="M15.6906 10V2.05372H18.8723C19.4568 2.05372 19.9444 2.14038 20.335 2.31368C20.7256 2.48699 21.0192 2.72755 21.2158 3.03537C21.4124 3.34059 21.5107 3.69238 21.5107 4.09073C21.5107 4.40113 21.4486 4.67403 21.3244 4.90942C21.2003 5.14222 21.0295 5.33363 20.8123 5.48366C20.5976 5.6311 20.3518 5.73586 20.0751 5.79794V5.87554C20.3777 5.88847 20.6609 5.97383 20.9248 6.13162C21.1912 6.28941 21.4072 6.51057 21.5728 6.7951C21.7383 7.07705 21.8211 7.41332 21.8211 7.80391C21.8211 8.22554 21.7163 8.6019 21.5068 8.93299C21.2999 9.2615 20.9933 9.52146 20.5872 9.71288C20.1811 9.90429 19.6806 10 19.0857 10H15.6906ZM17.3707 8.62647H18.7403C19.2085 8.62647 19.55 8.53723 19.7647 8.35875C19.9794 8.17768 20.0867 7.93712 20.0867 7.63707C20.0867 7.4172 20.0337 7.2232 19.9276 7.05507C19.8216 6.88693 19.6702 6.75501 19.4737 6.6593C19.2797 6.5636 19.0482 6.51574 18.7791 6.51574H17.3707V8.62647ZM17.3707 5.3789H18.6162C18.8464 5.3789 19.0507 5.3388 19.2292 5.25862C19.4103 5.17584 19.5526 5.05944 19.656 4.90942C19.7621 4.75939 19.8151 4.57961 19.8151 4.37009C19.8151 4.08297 19.7129 3.85146 19.5086 3.67557C19.3068 3.49968 19.0197 3.41173 18.6472 3.41173H17.3707V5.3789ZM26.705 7.46247V4.04029H28.3579V10H26.771V8.91747H26.7089C26.5744 9.26668 26.3507 9.54733 26.0377 9.75944C25.7273 9.97155 25.3483 10.0776 24.9008 10.0776C24.5025 10.0776 24.152 9.98707 23.8494 9.806C23.5467 9.62493 23.31 9.36756 23.1393 9.03388C22.9712 8.70019 22.8858 8.30055 22.8832 7.83495V4.04029H24.5361V7.54007C24.5387 7.89186 24.6331 8.16992 24.8194 8.37427C25.0056 8.57862 25.2552 8.68079 25.5682 8.68079C25.7674 8.68079 25.9536 8.63553 26.1269 8.54499C26.3002 8.45187 26.4399 8.31478 26.546 8.13371C26.6546 7.95264 26.7076 7.7289 26.705 7.46247ZM31.3329 2.05372V10H29.68V2.05372H31.3329ZM34.3099 2.05372V10H32.657V2.05372H34.3099ZM38.35 10.1164C37.7369 10.1164 37.2092 9.99224 36.7669 9.74392C36.3272 9.49301 35.9883 9.13864 35.7503 8.68079C35.5124 8.22036 35.3934 7.67587 35.3934 7.04731C35.3934 6.43426 35.5124 5.89623 35.7503 5.43322C35.9883 4.9702 36.3233 4.60936 36.7553 4.35069C37.1898 4.09202 37.6994 3.96269 38.284 3.96269C38.6772 3.96269 39.0432 4.02606 39.382 4.15281C39.7235 4.27697 40.0209 4.46451 40.2744 4.71541C40.5305 4.96632 40.7297 5.2819 40.872 5.66214C41.0142 6.03979 41.0854 6.48212 41.0854 6.98911V7.44307H36.053V6.41874H39.5295C39.5295 6.18077 39.4777 5.96995 39.3743 5.7863C39.2708 5.60265 39.1272 5.45908 38.9436 5.35562C38.7625 5.24956 38.5517 5.19654 38.3112 5.19654C38.0602 5.19654 37.8378 5.25474 37.6438 5.37114C37.4524 5.48495 37.3023 5.63886 37.1937 5.83286C37.0851 6.02427 37.0295 6.23768 37.0269 6.47306V7.44695C37.0269 7.74183 37.0812 7.99662 37.1898 8.21131C37.3011 8.42601 37.4575 8.59155 37.6593 8.70795C37.8611 8.82435 38.1003 8.88255 38.3771 8.88255C38.5608 8.88255 38.7289 8.85669 38.8815 8.80495C39.0341 8.75322 39.1648 8.67562 39.2734 8.57215C39.382 8.46869 39.4648 8.34194 39.5217 8.19191L41.0504 8.29279C40.9728 8.6601 40.8138 8.98085 40.5732 9.25504C40.3352 9.52664 40.0274 9.73875 39.6498 9.89136C39.2747 10.0414 38.8414 10.1164 38.35 10.1164ZM45.334 4.04029V5.2819H41.745V4.04029H45.334ZM42.5598 2.61244H44.2127V8.16863C44.2127 8.32125 44.2359 8.44023 44.2825 8.52559C44.3291 8.60837 44.3937 8.66657 44.4765 8.70019C44.5619 8.73382 44.6602 8.75063 44.7714 8.75063C44.849 8.75063 44.9266 8.74417 45.0042 8.73123C45.0818 8.71571 45.1413 8.70407 45.1827 8.69631L45.4426 9.92628C45.3599 9.95215 45.2435 9.98189 45.0934 10.0155C44.9434 10.0517 44.761 10.0737 44.5463 10.0815C44.148 10.097 43.7988 10.044 43.4987 9.9224C43.2013 9.80083 42.9698 9.612 42.8042 9.35592C42.6387 9.09984 42.5572 8.7765 42.5598 8.38591V2.61244Z" fill="#214671"/>
<circle cx="31" cy="44" r="12.5" fill="#78CE6A" stroke="black"/>
<path d="M45.8125 27H49.1875V36H45.8125V27Z" fill="#1D1D1D"/>
<path d="M43 33.1875L43 29.8125L52 29.8125V33.1875L43 33.1875Z" fill="#1D1D1D"/>
</svg>
