<svg width="59" height="76" viewBox="0 0 59 76" fill="none" xmlns="http://www.w3.org/2000/svg">
<rect y="13" width="59" height="63" rx="2" fill="#214671"/>
<rect x="4" y="17" width="51" height="55" rx="2" fill="#D9D9D9"/>
<path d="M12.5075 10H9.69064V2.05372H12.5308C13.3301 2.05372 14.0182 2.2128 14.595 2.53096C15.1718 2.84654 15.6154 3.3005 15.9258 3.89285C16.2388 4.4852 16.3953 5.19395 16.3953 6.0191C16.3953 6.84684 16.2388 7.55817 15.9258 8.15311C15.6154 8.74805 15.1692 9.2046 14.5872 9.52276C14.0078 9.84092 13.3146 10 12.5075 10ZM11.3707 8.56051H12.4377C12.9343 8.56051 13.3521 8.47257 13.6909 8.29667C14.0324 8.11819 14.2885 7.84271 14.4592 7.47023C14.6325 7.09516 14.7191 6.61145 14.7191 6.0191C14.7191 5.43192 14.6325 4.9521 14.4592 4.57961C14.2885 4.20713 14.0337 3.93294 13.6948 3.75705C13.356 3.58116 12.9382 3.49321 12.4416 3.49321H11.3707V8.56051ZM19.3082 10.1125C18.928 10.1125 18.5891 10.0466 18.2917 9.91464C17.9942 9.78013 17.7588 9.58225 17.5855 9.321C17.4148 9.05716 17.3294 8.72865 17.3294 8.33547C17.3294 8.00438 17.3902 7.72631 17.5118 7.50127C17.6334 7.27623 17.7989 7.09516 18.0084 6.95807C18.218 6.82097 18.4559 6.7175 18.7224 6.64766C18.9914 6.57782 19.2733 6.52868 19.5682 6.50022C19.9148 6.46401 20.1942 6.43038 20.4063 6.39934C20.6184 6.36572 20.7723 6.31657 20.868 6.2519C20.9637 6.18724 21.0116 6.09153 21.0116 5.96478V5.9415C21.0116 5.69577 20.934 5.50565 20.7788 5.37114C20.6262 5.23663 20.4089 5.16938 20.1269 5.16938C19.8295 5.16938 19.5928 5.23534 19.4169 5.36726C19.241 5.49659 19.1246 5.65955 19.0677 5.85614L17.539 5.73198C17.6166 5.36984 17.7692 5.05686 17.9968 4.79302C18.2244 4.52659 18.518 4.32224 18.8776 4.17997C19.2397 4.03512 19.6587 3.96269 20.1347 3.96269C20.4658 3.96269 20.7826 4.00149 21.0853 4.07909C21.3905 4.15669 21.6608 4.27697 21.8962 4.43993C22.1342 4.60289 22.3217 4.81242 22.4588 5.0685C22.5959 5.32199 22.6645 5.62593 22.6645 5.9803V10H21.0969V9.17356H21.0504C20.9547 9.3598 20.8266 9.52405 20.6662 9.66632C20.5059 9.806 20.3132 9.91593 20.0881 9.99612C19.8631 10.0737 19.6031 10.1125 19.3082 10.1125ZM19.7816 8.9718C20.0247 8.9718 20.2394 8.92394 20.4257 8.82823C20.6119 8.72994 20.7581 8.59802 20.8641 8.43247C20.9702 8.26693 21.0232 8.07939 21.0232 7.86987V7.23743C20.9715 7.27105 20.9003 7.30209 20.8098 7.33055C20.7219 7.35641 20.6223 7.38099 20.511 7.40427C20.3998 7.42496 20.2886 7.44436 20.1774 7.46247C20.0661 7.47799 19.9653 7.49221 19.8747 7.50515C19.6807 7.5336 19.5113 7.57887 19.3664 7.64095C19.2216 7.70303 19.1091 7.7871 19.0289 7.89315C18.9487 7.99662 18.9086 8.12595 18.9086 8.28115C18.9086 8.50619 18.9901 8.67821 19.153 8.79719C19.3186 8.91359 19.5281 8.9718 19.7816 8.9718ZM23.9468 10V4.04029H25.5221V5.09178H25.5919C25.7161 4.74257 25.923 4.46709 26.2127 4.26533C26.5024 4.06357 26.8491 3.96269 27.2526 3.96269C27.6613 3.96269 28.0092 4.06486 28.2963 4.26921C28.5834 4.47097 28.7748 4.74516 28.8705 5.09178H28.9326C29.0542 4.75033 29.2741 4.47744 29.5922 4.27309C29.913 4.06616 30.2919 3.96269 30.7291 3.96269C31.2852 3.96269 31.7366 4.13988 32.0832 4.49425C32.4324 4.84604 32.607 5.34527 32.607 5.99194V10H30.958V6.31786C30.958 5.98677 30.87 5.73845 30.6942 5.5729C30.5183 5.40735 30.2984 5.32458 30.0346 5.32458C29.7345 5.32458 29.5004 5.42028 29.3323 5.6117C29.1641 5.80053 29.0801 6.05014 29.0801 6.36054V10H27.4776V6.28294C27.4776 5.99065 27.3936 5.75785 27.2254 5.58454C27.0599 5.41123 26.8413 5.32458 26.5697 5.32458C26.386 5.32458 26.2205 5.37114 26.0731 5.46426C25.9282 5.55479 25.8131 5.68283 25.7277 5.84838C25.6424 6.01134 25.5997 6.20276 25.5997 6.42262V10H23.9468ZM35.6121 10.1125C35.2318 10.1125 34.893 10.0466 34.5955 9.91464C34.298 9.78013 34.0627 9.58225 33.8893 9.321C33.7186 9.05716 33.6333 8.72865 33.6333 8.33547C33.6333 8.00438 33.6941 7.72631 33.8156 7.50127C33.9372 7.27623 34.1027 7.09516 34.3123 6.95807C34.5218 6.82097 34.7598 6.7175 35.0262 6.64766C35.2952 6.57782 35.5772 6.52868 35.872 6.50022C36.2187 6.46401 36.498 6.43038 36.7101 6.39934C36.9222 6.36572 37.0761 6.31657 37.1718 6.2519C37.2676 6.18724 37.3154 6.09153 37.3154 5.96478V5.9415C37.3154 5.69577 37.2378 5.50565 37.0826 5.37114C36.93 5.23663 36.7127 5.16938 36.4308 5.16938C36.1333 5.16938 35.8966 5.23534 35.7207 5.36726C35.5448 5.49659 35.4284 5.65955 35.3715 5.85614L33.8428 5.73198C33.9204 5.36984 34.073 5.05686 34.3006 4.79302C34.5283 4.52659 34.8218 4.32224 35.1814 4.17997C35.5435 4.03512 35.9626 3.96269 36.4385 3.96269C36.7696 3.96269 37.0865 4.00149 37.3891 4.07909C37.6944 4.15669 37.9647 4.27697 38.2 4.43993C38.438 4.60289 38.6256 4.81242 38.7627 5.0685C38.8997 5.32199 38.9683 5.62593 38.9683 5.9803V10H37.4008V9.17356H37.3542C37.2585 9.3598 37.1305 9.52405 36.9701 9.66632C36.8097 9.806 36.617 9.91593 36.392 9.99612C36.1669 10.0737 35.907 10.1125 35.6121 10.1125ZM36.0854 8.9718C36.3286 8.9718 36.5433 8.92394 36.7295 8.82823C36.9158 8.72994 37.0619 8.59802 37.168 8.43247C37.274 8.26693 37.327 8.07939 37.327 7.86987V7.23743C37.2753 7.27105 37.2042 7.30209 37.1136 7.33055C37.0257 7.35641 36.9261 7.38099 36.8149 7.40427C36.7037 7.42496 36.5924 7.44436 36.4812 7.46247C36.37 7.47799 36.2691 7.49221 36.1786 7.50515C35.9846 7.5336 35.8151 7.57887 35.6703 7.64095C35.5254 7.70303 35.4129 7.7871 35.3327 7.89315C35.2525 7.99662 35.2124 8.12595 35.2124 8.28115C35.2124 8.50619 35.2939 8.67821 35.4569 8.79719C35.6224 8.91359 35.8319 8.9718 36.0854 8.9718ZM42.9356 12.3591C42.4002 12.3591 41.941 12.2853 41.5582 12.1379C41.178 11.993 40.8753 11.7952 40.6503 11.5442C40.4252 11.2933 40.2791 11.0114 40.2118 10.6984L41.7406 10.4928C41.7871 10.6117 41.8608 10.723 41.9617 10.8264C42.0626 10.9299 42.1958 11.0127 42.3614 11.0748C42.5295 11.1394 42.7339 11.1718 42.9744 11.1718C43.334 11.1718 43.6301 11.0838 43.8629 10.9079C44.0983 10.7346 44.216 10.4436 44.216 10.0349V8.94463H44.1462C44.0738 9.11018 43.9651 9.26668 43.8203 9.41412C43.6754 9.56156 43.4892 9.68184 43.2615 9.77496C43.0339 9.86808 42.7623 9.91464 42.4467 9.91464C41.9992 9.91464 41.5918 9.81117 41.2245 9.60424C40.8598 9.39472 40.5688 9.07526 40.3515 8.64587C40.1368 8.2139 40.0295 7.66811 40.0295 7.00851C40.0295 6.33338 40.1394 5.76949 40.3593 5.31682C40.5791 4.86415 40.8714 4.52529 41.2362 4.30025C41.6035 4.07521 42.0057 3.96269 42.4428 3.96269C42.7765 3.96269 43.0559 4.0196 43.2809 4.13341C43.506 4.24464 43.687 4.38432 43.8241 4.55245C43.9638 4.718 44.0712 4.88096 44.1462 5.04134H44.2083V4.04029H45.8495V10.0582C45.8495 10.5652 45.7253 10.9894 45.477 11.3308C45.2287 11.6723 44.8847 11.9284 44.4449 12.0991C44.0078 12.2724 43.5047 12.3591 42.9356 12.3591ZM42.9705 8.67303C43.237 8.67303 43.462 8.60707 43.6457 8.47515C43.8319 8.34065 43.9742 8.14923 44.0725 7.90091C44.1733 7.65 44.2238 7.34995 44.2238 7.00075C44.2238 6.65154 44.1746 6.3489 44.0763 6.09282C43.978 5.83415 43.8358 5.63369 43.6495 5.49142C43.4633 5.34915 43.237 5.27802 42.9705 5.27802C42.6989 5.27802 42.47 5.35174 42.2838 5.49918C42.0975 5.64403 41.9566 5.84579 41.8608 6.10446C41.7651 6.36313 41.7173 6.66189 41.7173 7.00075C41.7173 7.34477 41.7651 7.64224 41.8608 7.89315C41.9591 8.14147 42.1001 8.33418 42.2838 8.47127C42.47 8.60578 42.6989 8.67303 42.9705 8.67303ZM49.8808 10.1164C49.2678 10.1164 48.7401 9.99224 48.2978 9.74392C47.8581 9.49301 47.5192 9.13864 47.2812 8.68079C47.0433 8.22036 46.9243 7.67587 46.9243 7.04731C46.9243 6.43426 47.0433 5.89623 47.2812 5.43322C47.5192 4.9702 47.8542 4.60936 48.2862 4.35069C48.7207 4.09202 49.2303 3.96269 49.8149 3.96269C50.2081 3.96269 50.5741 4.02606 50.9129 4.15281C51.2544 4.27697 51.5518 4.46451 51.8053 4.71541C52.0614 4.96632 52.2606 5.2819 52.4029 5.66214C52.5451 6.03979 52.6163 6.48212 52.6163 6.98911V7.44307H47.5839V6.41874H51.0604C51.0604 6.18077 51.0086 5.96995 50.9052 5.7863C50.8017 5.60265 50.6581 5.45908 50.4745 5.35562C50.2934 5.24956 50.0826 5.19654 49.842 5.19654C49.5911 5.19654 49.3687 5.25474 49.1747 5.37114C48.9833 5.48495 48.8332 5.63886 48.7246 5.83286C48.616 6.02427 48.5603 6.23768 48.5578 6.47306V7.44695C48.5578 7.74183 48.6121 7.99662 48.7207 8.21131C48.8319 8.42601 48.9884 8.59155 49.1902 8.70795C49.392 8.82435 49.6312 8.88255 49.908 8.88255C50.0917 8.88255 50.2598 8.85669 50.4124 8.80495C50.565 8.75322 50.6957 8.67562 50.8043 8.57215C50.9129 8.46869 50.9957 8.34194 51.0526 8.19191L52.5813 8.29279C52.5037 8.6601 52.3447 8.98085 52.1041 9.25504C51.8661 9.52664 51.5583 9.73875 51.1807 9.89136C50.8056 10.0414 50.3723 10.1164 49.8808 10.1164Z" fill="#214671"/>
<path d="M43.5 44C43.5 50.9036 37.9036 56.5 31 56.5C24.0964 56.5 18.5 50.9036 18.5 44C18.5 37.0964 24.0964 31.5 31 31.5C37.9036 31.5 43.5 37.0964 43.5 44Z" fill="#78CE6A" stroke="black"/>
<path d="M32 27H51L48 43.75C48 43.75 47.5 38.75 47 38.25C46.5 37.75 44 36.75 44 36.75C44 36.75 45.8243 32.0743 45.5 31.75C45.1757 31.4257 39.5 32.25 39.5 32.25C39.5 32.25 40.5 29.75 40 29.25C39.5 28.75 32 27 32 27Z" fill="#272626"/>
</svg>
