<svg width="228" height="159" viewBox="0 0 228 159" fill="none" xmlns="http://www.w3.org/2000/svg">
<rect y="21" width="228" height="138" rx="12" fill="#BCBCBC"/>
<rect x="5" y="24" width="218" height="132" rx="12" fill="#D9D9D9"/>
<path d="M64 7.24093C64 3.48033 67.4192 0.650704 71.1234 1.29966C103.528 6.97683 124.443 7.15288 156.84 1.34337C160.555 0.677013 164 3.50982 164 7.28497V35.9518C164 39.6477 160.688 42.4607 157.033 41.9137C124.066 36.9806 102.995 36.9941 70.9885 41.8849C67.3255 42.4447 64 39.6289 64 35.9234V7.24093Z" fill="#245794"/>
<path d="M68 9.2219C68 5.46762 71.4142 2.64115 75.1145 3.27527C104.421 8.29749 123.551 8.45259 152.849 3.31762C156.561 2.66702 160 5.49659 160 9.26523V33.9677C160 37.6582 156.697 40.4692 153.045 39.9347C123.217 35.5685 103.942 35.5791 74.9805 39.906C71.3211 40.4527 68 37.6397 68 33.9397V9.2219Z" fill="#214672"/>
<path d="M88.7532 17.6968C88.6802 16.9613 88.3672 16.3899 87.814 15.9826C87.2608 15.5753 86.5101 15.3717 85.5618 15.3717C84.9175 15.3717 84.3735 15.4629 83.9297 15.6452C83.486 15.8215 83.1456 16.0677 82.9085 16.3838C82.6775 16.6999 82.562 17.0585 82.562 17.4597C82.5498 17.794 82.6198 18.0858 82.7717 18.335C82.9298 18.5843 83.1456 18.8001 83.4191 18.9824C83.6926 19.1587 84.0087 19.3137 84.3674 19.4474C84.726 19.5751 85.109 19.6845 85.5163 19.7757L87.194 20.1769C88.0085 20.3592 88.7562 20.6024 89.437 20.9063C90.1178 21.2103 90.7075 21.5841 91.2059 22.0278C91.7044 22.4716 92.0904 22.9944 92.3639 23.5961C92.6435 24.1979 92.7864 24.8879 92.7925 25.6659C92.7864 26.8087 92.4946 27.7996 91.9171 28.6384C91.3457 29.4712 90.519 30.1186 89.437 30.5806C88.3611 31.0365 87.0633 31.2644 85.5436 31.2644C84.0361 31.2644 82.7231 31.0334 81.6046 30.5715C80.4922 30.1095 79.623 29.4256 78.9969 28.5199C78.3768 27.6081 78.0516 26.4805 78.0212 25.1371H81.8417C81.8842 25.7632 82.0636 26.286 82.3796 26.7054C82.7018 27.1188 83.1304 27.4318 83.6653 27.6446C84.2063 27.8512 84.8172 27.9546 85.498 27.9546C86.1667 27.9546 86.7472 27.8573 87.2396 27.6628C87.738 27.4683 88.124 27.1978 88.3976 26.8513C88.6711 26.5048 88.8079 26.1066 88.8079 25.6568C88.8079 25.2374 88.6833 24.8848 88.434 24.5991C88.1909 24.3134 87.8322 24.0703 87.3581 23.8697C86.89 23.6691 86.3156 23.4867 85.6348 23.3226L83.6015 22.812C82.0271 22.429 80.784 21.8303 79.8722 21.0157C78.9604 20.2012 78.5075 19.104 78.5136 17.7241C78.5075 16.5935 78.8084 15.6057 79.4163 14.7608C80.0302 13.9158 80.8721 13.2563 81.942 12.7821C83.0118 12.308 84.2276 12.0709 85.5892 12.0709C86.9751 12.0709 88.1848 12.308 89.2182 12.7821C90.2576 13.2563 91.0661 13.9158 91.6436 14.7608C92.2211 15.6057 92.5189 16.5844 92.5371 17.6968H88.7532ZM95.4481 31V12.3262H99.3962V20.031H107.411V12.3262H111.35V31H107.411V23.2861H99.3962V31H95.4481ZM131.765 21.6631C131.765 23.6995 131.379 25.4319 130.607 26.8604C129.841 28.2889 128.796 29.38 127.471 30.1338C126.152 30.8815 124.668 31.2553 123.021 31.2553C121.362 31.2553 119.872 30.8784 118.553 30.1247C117.234 29.3709 116.192 28.2798 115.426 26.8513C114.66 25.4228 114.277 23.6934 114.277 21.6631C114.277 19.6268 114.66 17.8943 115.426 16.4658C116.192 15.0373 117.234 13.9493 118.553 13.2016C119.872 12.4478 121.362 12.0709 123.021 12.0709C124.668 12.0709 126.152 12.4478 127.471 13.2016C128.796 13.9493 129.841 15.0373 130.607 16.4658C131.379 17.8943 131.765 19.6268 131.765 21.6631ZM127.762 21.6631C127.762 20.344 127.565 19.2316 127.17 18.3259C126.781 17.4202 126.231 16.7333 125.519 16.2652C124.808 15.7972 123.975 15.5632 123.021 15.5632C122.067 15.5632 121.234 15.7972 120.523 16.2652C119.811 16.7333 119.258 17.4202 118.863 18.3259C118.474 19.2316 118.28 20.344 118.28 21.6631C118.28 22.9822 118.474 24.0946 118.863 25.0003C119.258 25.9061 119.811 26.5929 120.523 27.061C121.234 27.5291 122.067 27.7631 123.021 27.7631C123.975 27.7631 124.808 27.5291 125.519 27.061C126.231 26.5929 126.781 25.9061 127.17 25.0003C127.565 24.0946 127.762 22.9822 127.762 21.6631ZM134.69 31V12.3262H142.057C143.474 12.3262 144.68 12.5967 145.677 13.1378C146.674 13.6727 147.434 14.4173 147.957 15.3717C148.485 16.3199 148.75 17.4141 148.75 18.6542C148.75 19.8942 148.482 20.9884 147.947 21.9367C147.413 22.8849 146.638 23.6235 145.622 24.1523C144.613 24.6812 143.392 24.9456 141.957 24.9456H137.261V21.7817H141.319C142.079 21.7817 142.705 21.651 143.197 21.3896C143.695 21.1221 144.066 20.7544 144.309 20.2863C144.559 19.8122 144.683 19.2681 144.683 18.6542C144.683 18.0341 144.559 17.4931 144.309 17.0312C144.066 16.5631 143.695 16.2014 143.197 15.9461C142.699 15.6847 142.066 15.554 141.3 15.554H138.638V31H134.69Z" fill="#F4F4F4"/>
</svg>
