<svg width="1910" height="1060" viewBox="0 0 1910 1060" fill="none" xmlns="http://www.w3.org/2000/svg">
<rect x="1" y="1" width="1909" height="1059" fill="#252525"/>
<rect x="0.5" y="636" width="212" height="212" fill="#3B3B3B"/>
<rect x="0.5" y="636" width="212" height="212" fill="#353535"/>
<rect x="636.5" y="636" width="212" height="212" fill="#3B3B3B"/>
<rect x="424.5" y="636" width="212" height="212" fill="#353535"/>
<rect x="1060.5" y="636" width="212" height="212" fill="#3B3B3B"/>
<rect x="848.5" y="636" width="212" height="212" fill="#353535"/>
<rect x="212.5" y="636" width="212" height="212" fill="#3B3B3B"/>
<rect x="1484.5" y="636" width="212" height="212" fill="#3B3B3B"/>
<rect x="1272.5" y="636" width="212" height="212" fill="#353535"/>
<rect x="1696.5" y="636" width="212" height="212" fill="#353535"/>
<rect y="424" width="212" height="212" fill="#3B3B3B"/>
<rect x="211.5" y="424" width="212" height="212" fill="#353535"/>
<path d="M423.5 424H635.5V636H423.5V424Z" fill="#3B3B3B"/>
<rect x="635.5" y="424" width="212" height="212" fill="#353535"/>
<rect x="847.5" y="424" width="212" height="212" fill="#3B3B3B"/>
<rect x="1059.5" y="424" width="212" height="212" fill="#353535"/>
<rect x="1271.5" y="424" width="212" height="212" fill="#3B3B3B"/>
<path d="M1695.5 424H1907.5V636H1695.5V424Z" fill="#3B3B3B"/>
<rect y="424" width="212" height="212" fill="#3B3B3B"/>
<rect x="1483.5" y="424" width="212" height="212" fill="#353535"/>
<rect y="848" width="212" height="212" fill="#3B3B3B"/>
<rect x="211.5" y="848" width="212" height="212" fill="#353535"/>
<path d="M423.5 848H635.5V1060H423.5V848Z" fill="#3B3B3B"/>
<rect x="635.5" y="848" width="212" height="212" fill="#353535"/>
<rect x="847.5" y="848" width="212" height="212" fill="#3B3B3B"/>
<rect x="1059.5" y="848" width="212" height="212" fill="#353535"/>
<rect x="1271.5" y="848" width="212" height="212" fill="#3B3B3B"/>
<path d="M1695.5 848H1907.5V1060H1695.5V848Z" fill="#3B3B3B"/>
<rect y="848" width="212" height="212" fill="#3B3B3B"/>
<rect x="1483.5" y="848" width="212" height="212" fill="#353535"/>
<rect x="0.5" y="212" width="212" height="212" fill="#3B3B3B"/>
<rect x="0.5" y="212" width="212" height="212" fill="#353535"/>
<rect x="636.5" y="212" width="212" height="212" fill="#3B3B3B"/>
<rect x="424.5" y="212" width="212" height="212" fill="#353535"/>
<rect x="1060.5" y="212" width="212" height="212" fill="#3B3B3B"/>
<rect x="848.5" y="212" width="212" height="212" fill="#353535"/>
<rect x="212.5" y="212" width="212" height="212" fill="#3B3B3B"/>
<rect x="1484.5" y="212" width="212" height="212" fill="#3B3B3B"/>
<rect x="1272.5" y="212" width="212" height="212" fill="#353535"/>
<rect x="1696.5" y="212" width="212" height="212" fill="#353535"/>
<rect x="0.5" width="212" height="212" fill="#3B3B3B"/>
<rect x="212" width="212" height="212" fill="#353535"/>
<path d="M424 0H636V212H424V0Z" fill="#3B3B3B"/>
<rect x="636" width="212" height="212" fill="#353535"/>
<rect x="848" width="212" height="212" fill="#3B3B3B"/>
<rect x="1060" width="212" height="212" fill="#353535"/>
<rect x="1272" width="212" height="212" fill="#3B3B3B"/>
<path d="M1696 0H1908V212H1696V0Z" fill="#3B3B3B"/>
<rect x="0.5" width="212" height="212" fill="#3B3B3B"/>
<rect x="1484" width="212" height="212" fill="#353535"/>
<rect x="1.5" y="1" width="1908" height="1059" fill="#091231" fill-opacity="0.44"/>
</svg>
