<svg width="52" height="52" viewBox="0 0 52 52" fill="none" xmlns="http://www.w3.org/2000/svg">
<circle cx="26" cy="26" r="26" fill="#DB9102"/>
<path d="M46.4286 25.9999C46.4286 37.2823 37.2824 46.4284 26 46.4284C14.7176 46.4284 5.57143 37.2823 5.57143 25.9999C5.57143 14.7175 14.7176 5.57129 26 5.57129C37.2824 5.57129 46.4286 14.7175 46.4286 25.9999Z" fill="#E6C862"/>
<path d="M25.5646 39.7472V11.6086H27.3672V39.7472H25.5646ZM30.346 20.8966C30.258 20.0099 29.8807 19.3211 29.2138 18.8301C28.547 18.3392 27.642 18.0937 26.4989 18.0937C25.7222 18.0937 25.0663 18.2036 24.5314 18.4234C23.9965 18.6359 23.5861 18.9327 23.3003 19.3138C23.0219 19.6948 22.8827 20.1271 22.8827 20.6108C22.868 21.0138 22.9523 21.3655 23.1355 21.666C23.326 21.9664 23.5861 22.2265 23.9159 22.4464C24.2456 22.6589 24.6267 22.8457 25.059 23.0069C25.4913 23.1608 25.953 23.2927 26.4439 23.4026L28.4664 23.8863C29.4483 24.1061 30.3496 24.3992 31.1703 24.7656C31.9911 25.132 32.7018 25.5826 33.3027 26.1176C33.9036 26.6525 34.3689 27.2827 34.6987 28.0081C35.0357 28.7336 35.2079 29.5653 35.2153 30.5032C35.2079 31.8808 34.8562 33.0753 34.1601 34.0865C33.4713 35.0904 32.4747 35.8708 31.1703 36.4277C29.8733 36.9773 28.3089 37.2521 26.4769 37.2521C24.6596 37.2521 23.0769 36.9736 21.7285 36.4167C20.3876 35.8598 19.3397 35.0354 18.5849 33.9436C17.8375 32.8444 17.4455 31.4851 17.4088 29.8657H22.0143C22.0656 30.6205 22.2818 31.2507 22.6628 31.7563C23.0512 32.2546 23.5678 32.6319 24.2127 32.8884C24.8648 33.1375 25.6013 33.2621 26.422 33.2621C27.228 33.2621 27.9278 33.1449 28.5214 32.9104C29.1222 32.6759 29.5876 32.3498 29.9173 31.9321C30.247 31.5145 30.4119 31.0345 30.4119 30.4922C30.4119 29.9866 30.2617 29.5616 29.9613 29.2172C29.6682 28.8728 29.2358 28.5797 28.6643 28.3379C28.1 28.0961 27.4075 27.8762 26.5868 27.6784L24.1357 27.0628C22.2378 26.6012 20.7393 25.8794 19.6401 24.8975C18.541 23.9156 17.9951 22.5929 18.0024 20.9295C17.9951 19.5666 18.3578 18.3758 19.0906 17.3573C19.8307 16.3387 20.8456 15.5436 22.1352 14.9721C23.4249 14.4005 24.8905 14.1147 26.5319 14.1147C28.2026 14.1147 29.6608 14.4005 30.9065 14.9721C32.1596 15.5436 33.1342 16.3387 33.8303 17.3573C34.5264 18.3758 34.8855 19.5556 34.9075 20.8966H30.346Z" fill="#DB9102"/>
</svg>
