<svg width="69" height="23" viewBox="0 0 69 23" fill="none" xmlns="http://www.w3.org/2000/svg">
<rect x="4" y="3" width="65" height="18" rx="2" fill="#626161"/>
<circle cx="11.5" cy="11.5" r="11.5" fill="#626161"/>
<circle cx="11.5" cy="11.5" r="9.5" fill="#4E4E4E"/>
<path d="M35.6752 15H33.5268V8.93939H35.6929C36.3026 8.93939 36.8273 9.06072 37.2673 9.30338C37.7072 9.54407 38.0456 9.89031 38.2823 10.3421C38.521 10.7939 38.6404 11.3344 38.6404 11.9638C38.6404 12.5951 38.521 13.1376 38.2823 13.5914C38.0456 14.0451 37.7053 14.3933 37.2614 14.636C36.8194 14.8787 36.2907 15 35.6752 15ZM34.8081 13.9021H35.6219C36.0007 13.9021 36.3193 13.835 36.5778 13.7009C36.8382 13.5647 37.0335 13.3546 37.1637 13.0705C37.2959 12.7845 37.362 12.4156 37.362 11.9638C37.362 11.5159 37.2959 11.15 37.1637 10.8659C37.0335 10.5818 36.8392 10.3727 36.5807 10.2385C36.3223 10.1044 36.0037 10.0373 35.6249 10.0373H34.8081V13.9021ZM41.4243 15.0888C41.0061 15.0888 40.6451 15.0138 40.3412 14.8639C40.0374 14.7139 39.8036 14.5107 39.6399 14.2543C39.4781 13.9958 39.3972 13.7078 39.3972 13.3902C39.3972 13.1534 39.4446 12.9433 39.5393 12.7598C39.634 12.5763 39.7661 12.4077 39.9358 12.2538C40.1055 12.0979 40.3028 11.9431 40.5277 11.7892L41.7025 11.0168C41.8544 10.9201 41.9659 10.8185 42.0369 10.712C42.1079 10.6035 42.1434 10.4861 42.1434 10.3598C42.1434 10.2395 42.0951 10.128 41.9984 10.0254C41.9018 9.92286 41.7646 9.87255 41.5871 9.87453C41.4687 9.87453 41.3661 9.90116 41.2793 9.95443C41.1925 10.0057 41.1245 10.0738 41.0751 10.1586C41.0278 10.2415 41.0041 10.3342 41.0041 10.4368C41.0041 10.5631 41.0396 10.6913 41.1106 10.8215C41.1817 10.9517 41.2764 11.0898 41.3947 11.2358C41.5131 11.3798 41.6423 11.5357 41.7824 11.7034L44.6559 15H43.3419L40.9449 12.3307C40.7871 12.1512 40.6293 11.9638 40.4714 11.7685C40.3156 11.5712 40.1854 11.3621 40.0808 11.1411C39.9763 10.9182 39.924 10.6765 39.924 10.4161C39.924 10.1221 39.992 9.85776 40.1282 9.62299C40.2663 9.38822 40.4596 9.20277 40.7082 9.06664C40.9568 8.92854 41.2468 8.85949 41.5782 8.85949C41.9018 8.85949 42.1809 8.92558 42.4157 9.05776C42.6524 9.18797 42.8339 9.36158 42.9602 9.5786C43.0884 9.79364 43.1526 10.0304 43.1526 10.2888C43.1526 10.5749 43.0815 10.8343 42.9395 11.0671C42.7994 11.2979 42.6021 11.5051 42.3476 11.6886L41.1106 12.5793C40.943 12.7016 40.8187 12.8269 40.7378 12.9551C40.6589 13.0814 40.6194 13.2027 40.6194 13.3191C40.6194 13.4631 40.6549 13.5924 40.7259 13.7068C40.797 13.8212 40.8976 13.912 41.0278 13.979C41.158 14.0442 41.3109 14.0767 41.4865 14.0767C41.6995 14.0767 41.9097 14.0284 42.1168 13.9317C42.3259 13.8331 42.5153 13.694 42.685 13.5144C42.8566 13.3329 42.9937 13.1179 43.0963 12.8693C43.1989 12.6207 43.2502 12.3455 43.2502 12.0437H44.2948C44.2948 12.4146 44.2544 12.749 44.1735 13.0469C44.0926 13.3428 43.9802 13.6012 43.8361 13.8222C43.6921 14.0412 43.5274 14.2207 43.3419 14.3608C43.2828 14.3983 43.2255 14.4338 43.1703 14.4673C43.1151 14.5009 43.0579 14.5364 42.9987 14.5739C42.7738 14.7554 42.5222 14.8866 42.2441 14.9674C41.9679 15.0483 41.6946 15.0888 41.4243 15.0888ZM45.2048 15V8.93939H47.6314C48.0773 8.93939 48.4492 9.00548 48.7471 9.13767C49.045 9.26985 49.2689 9.45332 49.4188 9.68809C49.5688 9.92089 49.6437 10.1892 49.6437 10.493C49.6437 10.7298 49.5964 10.9379 49.5017 11.1174C49.407 11.295 49.2768 11.441 49.1111 11.5554C48.9473 11.6679 48.7599 11.7478 48.5488 11.7951V11.8543C48.7796 11.8641 48.9957 11.9293 49.1969 12.0496C49.4001 12.1699 49.5648 12.3386 49.6911 12.5556C49.8173 12.7707 49.8805 13.0271 49.8805 13.325C49.8805 13.6466 49.8006 13.9337 49.6408 14.1862C49.4829 14.4368 49.2492 14.635 48.9394 14.781C48.6297 14.927 48.2479 15 47.7942 15H45.2048ZM46.4862 13.9524H47.5308C47.8879 13.9524 48.1483 13.8844 48.3121 13.7482C48.4758 13.6101 48.5577 13.4266 48.5577 13.1978C48.5577 13.0301 48.5172 12.8821 48.4363 12.7539C48.3555 12.6257 48.24 12.5251 48.0901 12.4521C47.9421 12.3791 47.7656 12.3426 47.5604 12.3426H46.4862V13.9524ZM46.4862 11.4755H47.4361C47.6117 11.4755 47.7675 11.4449 47.9037 11.3838C48.0418 11.3206 48.1503 11.2318 48.2292 11.1174C48.3101 11.003 48.3505 10.8659 48.3505 10.7061C48.3505 10.4871 48.2726 10.3105 48.1167 10.1764C47.9629 10.0422 47.7439 9.97514 47.4598 9.97514H46.4862V11.4755Z" fill="white"/>
<rect x="7" y="6" width="3" height="10" fill="#D9D9D9"/>
<rect x="12" y="6" width="3" height="10" fill="#D9D9D9"/>
</svg>
